# xmcd
#
# Track frame offsets: 
#        150
#        11490
#        21662
#        35257
#        47773
#        57556
#        71798
#        85792
#        97018
#        110527
#        123217
#        135297
#        147198
#        160962
#        174202
#        186981
#        198824
#        212146
#        222739
#        234302
#        247739
#        260274
#
# Disc length: 3615 seconds
#
# Revision: 2
# Processed by: cddbd v1.5.2PL0 Copyright (c) Steve Scherf et al.
# Submitted via: ExactAudioCopy v1.3
#
DISCID=370e1d16
DTITLE=Various Artist - Grand Ole Country
DYEAR=2010
DGENRE=Country
TTITLE0=Gene Autry - You Are My Sunshine
TTITLE1=Merle Travis - Sixteen Tones
TTITLE2=Roy Rogers  - Along The Navajo Trail
TTITLE3=Hank Williams - Fly Trouble
TTITLE4=Merle Travis - Deep South
TTITLE5=Ernst Tubb - Don't Look Now But Your Broken Heart Is Stopping
TTITLE6=Jimmie Rodgers - Blue Yodle No.4
TTITLE7=Porter Wagoner - Takin' Chances
TTITLE8=Hank Snow -  I Don't Hurt Anymore
TTITLE9=Jimmy Wakely - I Love You So Much It Hurts
TTITLE10=Roy Rogers - San Fernando Valley
TTITLE11=Tennessee Ernie Ford - The Shot Gun Boogie
TTITLE12=Tex Williams and His Western Caravan - The California Polka
TTITLE13=Burl Ives - I Know An Old Lady Who Swallowed A Fly
TTITLE14=Roy Acuff - The Prodigal Sun
TTITLE15=Tex Ritter - I've Had Enough Of Your Two Timin'
TTITLE16=Faron Young - I'm A Free Man Now
TTITLE17=Slim Whitman - Rose Marie
TTITLE18=Hank Thompson - Cryin' In The Deep Blue Sea
TTITLE19=Hank Williams - Hey Goodlooking
TTITLE20=Gene Autry - Deep In The Heart Of Texas
TTITLE21=Porter Wagoner -  Bad News Travesl Fast 
EXTD=YEAR: 2010
EXTT0=
EXTT1=
EXTT2=
EXTT3=
EXTT4=
EXTT5=
EXTT6=
EXTT7=
EXTT8=
EXTT9=
EXTT10=
EXTT11=
EXTT12=
EXTT13=
EXTT14=
EXTT15=
EXTT16=
EXTT17=
EXTT18=
EXTT19=
EXTT20=
EXTT21=
PLAYORDER=
